<?xml version="1.0" encoding="UTF-8" standalone="no"?>
<!DOCTYPE svg PUBLIC "-//W3C//DTD SVG 1.1//EN" "http://www.w3.org/Graphics/SVG/1.1/DTD/svg11.dtd">
<svg width="100%" height="100%" viewBox="0 0 412 289" version="1.1" xmlns="http://www.w3.org/2000/svg" xmlns:xlink="http://www.w3.org/1999/xlink" xml:space="preserve" xmlns:serif="http://www.serif.com/" style="fill-rule:evenodd;clip-rule:evenodd;stroke-linejoin:round;stroke-miterlimit:2;">
    <g transform="matrix(1,0,0,1,-77.437132,-81.525532)">
        <g>
            <path d="M275.458,247.558L255.205,247.558L254.988,246.853L254.681,245.707L251.795,235.092L229.66,235.092L226.355,245.756L226.012,246.867L225.803,247.558L205.556,247.558L205.955,246.298L206.563,244.355L228.917,173.448L229.252,172.35L229.485,171.67L251.888,171.67L252.094,172.35L252.444,173.46L274.463,244.36L275.072,246.298L275.458,247.558ZM234.117,219.936L247.486,219.936L240.89,196.507L240.789,196.591L235.141,216.097L234.117,219.936Z" style="fill-rule:nonzero;"/>
            <path d="M298.021,247.53L279.027,247.53L279.027,171.744L306.917,171.744C315.37,171.744 322.033,173.612 326.702,177.306C331.746,181.291 334.426,188.083 334.426,196.187C334.426,204.465 331.604,211.821 326.702,215.699C322.033,219.389 315.37,221.264 306.917,221.264L298.021,221.264L298.021,247.53ZM298.021,204.81L306.82,204.81C315.457,204.81 316.679,201.293 316.679,196.188C316.679,191.169 315.456,187.707 306.82,187.707L298.021,187.707L298.021,204.81Z" style="fill-rule:nonzero;"/>
            <g>
                <path d="M341.466,247.612L341.466,173.007L352.318,173.007L376.982,210.753C382.694,219.496 387.152,227.355 390.802,234.994L391.035,234.885C390.114,224.923 389.889,215.846 389.889,204.222L389.889,173.008L399.257,173.008L399.257,247.612L389.204,247.612L364.766,209.759C359.395,201.456 354.257,192.934 350.374,184.856L350.03,184.964C350.601,194.371 350.829,203.339 350.829,215.735L350.829,247.612L341.466,247.612Z" style="fill-rule:nonzero;"/>
                <rect x="412.794" y="173.007" width="9.933" height="74.604" style="fill-rule:nonzero;"/>
            </g>
            <path d="M487.079,237.523C481.852,239.512 477.343,240.345 471.635,240.345C454.138,240.345 442.735,228.038 442.735,209.3C442.735,192.25 454.024,180.059 469.832,180.059C476.262,180.059 481.262,181.407 486.268,184.493L488.815,176.138C487.347,175.288 486.025,174.72 484.168,174.078C479.76,172.385 475.023,171.594 470.164,171.594C448.834,171.594 432.685,188.077 432.685,209.862C432.685,232.782 448.608,248.925 471.073,248.925C474.57,248.925 477.618,248.585 481.345,247.682C484.385,246.947 486.143,246.361 489.139,245.066L487.079,237.523Z" style="fill-rule:nonzero;"/>
        </g>
        <g>
            <path d="M209.456,264.662L209.456,276.31L219.967,276.31L220.442,279.246L209.457,279.246L209.457,294.35L206.19,294.35L206.19,261.68L222.572,261.68L222.572,264.662L209.456,264.662Z" style="fill-rule:nonzero;"/>
            <path d="M241.369,294.965C232.658,294.965 226.691,288.053 226.691,278.062C226.691,268.025 232.752,261.064 241.464,261.064C250.271,261.064 256.189,267.977 256.189,277.967C256.189,287.958 250.176,294.965 241.369,294.965ZM241.417,264C234.552,264 230.054,269.682 230.054,277.967C230.054,286.348 234.6,292.029 241.465,292.029C248.33,292.029 252.828,286.347 252.828,278.061C252.828,269.682 248.283,264 241.417,264Z" style="fill-rule:nonzero;"/>
            <path d="M275.13,294.871C267.459,294.871 262.913,289.758 262.913,282.135L262.913,261.68L266.181,261.68L266.181,281.708C266.181,287.769 269.163,291.935 275.177,291.935C281.048,291.935 284.22,288.1 284.22,281.898L284.22,261.68L287.488,261.68L287.488,281.898C287.488,289.804 282.8,294.871 275.13,294.871Z" style="fill-rule:nonzero;"/>
            <path d="M317.84,294.35L298.759,266.841L298.759,294.35L295.681,294.35L295.681,261.68L298.759,261.68L317.272,288.336L317.272,261.68L320.349,261.68L320.349,294.35L317.84,294.35Z" style="fill-rule:nonzero;"/>
            <path d="M337.822,294.35L329.063,294.35L329.063,261.68L337.964,261.68C348.854,261.68 354.962,268.261 354.962,277.967C354.962,288.005 348.333,294.35 337.822,294.35ZM338.011,264.616L332.329,264.616L332.329,291.415L338.011,291.415C346.297,291.415 351.6,286.964 351.6,278.016C351.6,269.208 346.155,264.616 338.011,264.616Z" style="fill-rule:nonzero;"/>
            <path d="M370.919,261.491L374.28,261.491L387.064,293.971L383.844,294.681L379.677,283.791L365.425,283.791L361.401,294.35L358.04,294.35L370.919,261.491ZM366.563,280.903L378.542,280.903L372.528,265.279L366.563,280.903Z" style="fill-rule:nonzero;"/>
            <path d="M400.135,264.663L400.135,294.351L396.868,294.351L396.868,264.663L386.356,264.663L386.356,261.681L410.409,261.681L410.835,264.663L400.135,264.663Z" style="fill-rule:nonzero;"/>
            <rect x="416.897" y="261.68" width="3.267" height="32.67" style="fill-rule:nonzero;"/>
            <path d="M442.465,294.965C433.753,294.965 427.787,288.053 427.787,278.062C427.787,268.025 433.848,261.064 442.559,261.064C451.366,261.064 457.284,267.977 457.284,277.967C457.285,287.958 451.272,294.965 442.465,294.965ZM442.512,264C435.647,264 431.149,269.682 431.149,277.967C431.149,286.348 435.694,292.029 442.56,292.029C449.425,292.029 453.923,286.347 453.923,278.061C453.923,269.682 449.377,264 442.512,264Z" style="fill-rule:nonzero;"/>
            <path d="M486.69,294.35L467.609,266.841L467.609,294.35L464.532,294.35L464.532,261.68L467.609,261.68L486.122,288.336L486.122,261.68L489.2,261.68L489.2,294.35L486.69,294.35Z" style="fill-rule:nonzero;"/>
        </g>
        <g>
            <g>
                <g>
                    <path d="M145.694,84.221C149.412,87.935 149.344,93.853 145.715,97.477C141.94,101.254 136.023,101.323 132.308,97.608C128.669,93.97 128.74,88.056 132.514,84.28C136.143,80.653 142.056,80.582 145.694,84.221ZM116.589,113.326C120.309,117.042 120.155,123.039 116.539,126.659C112.754,130.441 106.841,130.507 103.124,126.79C99.485,123.153 99.557,117.237 103.34,113.456C106.956,109.839 112.955,109.688 116.589,113.326Z" style="fill-rule:nonzero;"/>
                    <path d="M173.732,112.257C177.447,115.973 177.384,121.892 173.753,125.519C169.982,129.295 164.061,129.361 160.345,125.644C156.711,122.01 156.775,116.092 160.552,112.314C164.177,108.689 170.097,108.623 173.732,112.257ZM144.627,141.364C148.347,145.077 148.196,151.078 144.581,154.696C140.796,158.478 134.879,158.545 131.161,154.83C127.529,151.193 127.595,145.272 131.376,141.491C134.994,137.872 140.997,137.73 144.627,141.364Z" style="fill-rule:nonzero;"/>
                </g>
            </g>
        </g>
        <path d="M197.894,138.152C196.98,137.98 195.645,138.09 194.352,138.959C184.874,144.181 172.951,152.278 161.407,165.253C150.608,177.403 143.037,191.744 139.245,206.109C135.456,191.744 127.885,177.403 117.084,165.253C105.54,152.278 93.618,144.181 84.141,138.959C82.846,138.09 81.511,137.98 80.599,138.152C78.965,138.468 77.279,140.446 77.449,141.342C77.586,142.06 78.404,143.381 79.52,144.28C97.83,159.119 110.907,184.027 117.138,216.351C122.889,246.181 120.113,276.704 108.963,296.983C108.264,298.233 107.955,299.577 108.127,300.483C108.303,301.37 110.639,302.768 112.28,302.46C113.183,302.286 114.388,301.687 115.449,300.374C122.859,291.923 130.693,280.8 137.365,262.667C138.066,260.703 138.689,258.649 139.245,256.534C139.8,258.649 140.422,260.703 141.125,262.667C147.797,280.8 155.633,291.923 163.041,300.374C164.101,301.686 165.309,302.286 166.209,302.46C167.853,302.769 170.19,301.37 170.364,300.483C170.534,299.577 170.226,298.233 169.527,296.983C158.379,276.704 155.6,246.18 161.353,216.351C167.582,184.027 180.662,159.119 198.972,144.28C200.085,143.381 200.904,142.06 201.042,141.342C201.212,140.446 199.524,138.468 197.894,138.152Z" style="fill:rgb(162,189,48);fill-rule:nonzero;"/>
        <g>
            <path d="M393.707,346.061C392.735,346.061 391.899,346.619 391.487,347.43L387.433,337.376C388.291,337.663 389.279,337.469 389.964,336.782C390.93,335.812 390.933,334.248 389.964,333.278C388.997,332.313 387.43,332.313 386.461,333.278C385.775,333.965 385.579,334.952 385.866,335.812L385.812,335.865L375.888,331.647L375.888,331.574C376.7,331.17 377.256,330.331 377.256,329.361C377.256,327.993 376.146,326.883 374.781,326.883C373.415,326.883 372.302,327.992 372.302,329.361C372.302,330.331 372.862,331.17 373.672,331.574L373.672,331.678L363.695,335.707L363.617,335.635C363.907,334.773 363.71,333.783 363.022,333.098C362.055,332.133 360.488,332.133 359.522,333.098C358.556,334.067 358.556,335.635 359.522,336.602C360.209,337.286 361.192,337.484 362.055,337.198L362.108,337.248L357.891,347.181L357.817,347.181C357.413,346.366 356.573,345.808 355.604,345.808C354.236,345.808 353.125,346.917 353.125,348.285C353.125,349.653 354.235,350.763 355.604,350.763C356.573,350.763 357.413,350.202 357.817,349.394L361.876,359.442C361.014,359.159 360.026,359.353 359.341,360.039C358.376,361.006 358.376,362.576 359.341,363.544C360.307,364.512 361.878,364.512 362.846,363.544C363.51,362.882 363.715,361.935 363.469,361.098L373.337,365.286C372.57,365.709 372.05,366.524 372.05,367.46C372.05,368.829 373.158,369.937 374.523,369.937C375.894,369.937 377.004,368.83 377.004,367.46C377.004,366.539 376.493,365.731 375.745,365.306L385.648,361.307C385.419,362.141 385.629,363.07 386.282,363.723C387.248,364.689 388.815,364.689 389.783,363.723C390.751,362.755 390.751,361.187 389.783,360.22C389.121,359.559 388.175,359.35 387.337,359.594L391.525,349.729C391.949,350.492 392.766,351.014 393.705,351.014C395.069,351.014 396.177,349.908 396.177,348.538C396.178,347.169 395.071,346.061 393.707,346.061ZM389.109,347.43L386.769,347.43L381.625,345.609L383.852,340.949C383.866,340.935 383.886,340.923 383.901,340.907L385.73,339.076C386.537,341.062 388.254,345.315 389.109,347.43ZM384.13,337.552L382.531,339.151L382.528,339.151L377.601,341.499L375.877,336.634C375.879,336.611 375.888,336.592 375.888,336.566L375.888,334.052C377.88,334.895 382.044,336.668 384.13,337.552ZM374.715,339.976L376.336,343.789L380.662,342.49L379.105,346.332L383.092,348.474L379.273,350.092L380.575,354.419L376.728,352.864L374.592,356.842L372.975,353.029L368.645,354.334L370.198,350.487L366.216,348.347L370.036,346.73L368.735,342.399L372.576,343.957L374.715,339.976ZM373.674,334.063L373.674,336.296L371.854,341.44L367.192,339.215C367.178,339.197 367.168,339.181 367.15,339.164L365.394,337.407C367.45,336.578 371.621,334.892 373.674,334.063ZM363.797,338.936L365.394,340.536L367.748,345.462L362.875,347.183C362.854,347.183 362.834,347.182 362.813,347.182L360.297,347.182C361.182,345.095 362.952,340.93 363.797,338.936ZM360.203,349.386L362.541,349.386L367.686,351.21L365.459,355.87C365.446,355.886 365.427,355.895 365.409,355.912L363.576,357.744C362.722,355.626 361.004,351.375 360.203,349.386ZM366.777,357.669L366.78,357.669L371.709,355.32L373.429,360.184C373.429,360.207 373.424,360.232 373.424,360.254L373.424,362.915C371.342,362.031 367.066,360.217 365.075,359.373L366.777,357.669ZM375.631,362.965L375.631,360.527L377.451,355.381L382.116,357.601C382.129,357.621 382.14,357.639 382.156,357.657L384.064,359.561C382.015,360.386 377.683,362.139 375.631,362.965ZM385.62,357.991L383.917,356.288L383.917,356.285L381.563,351.358L386.432,349.637C386.455,349.637 386.478,349.644 386.498,349.644L389.163,349.644C388.317,351.629 386.501,355.902 385.62,357.991Z" style="fill:rgb(162,189,48);fill-rule:nonzero;"/>
            <path d="M287.237,333.829C287.237,332.714 287.633,331.763 288.424,330.978C289.216,330.193 290.169,329.798 291.285,329.798C292.442,329.798 293.41,330.186 294.188,330.956C294.966,331.727 295.355,332.685 295.355,333.828C295.355,334.972 294.958,335.941 294.167,336.741C293.376,337.539 292.415,337.938 291.286,337.938C290.184,337.938 289.235,337.533 288.434,336.719C287.635,335.909 287.237,334.944 287.237,333.829Z" style="fill:rgb(162,189,48);fill-rule:nonzero;"/>
            <path d="M322.211,333.829C322.211,332.714 322.608,331.763 323.399,330.978C324.192,330.193 325.145,329.798 326.261,329.798C327.417,329.798 328.384,330.186 329.164,330.956C329.94,331.727 330.331,332.685 330.331,333.828C330.331,334.972 329.935,335.941 329.142,336.741C328.352,337.539 327.39,337.938 326.261,337.938C325.158,337.938 324.209,337.533 323.409,336.719C322.611,335.909 322.211,334.944 322.211,333.829Z" style="fill:rgb(162,189,48);fill-rule:nonzero;"/>
            <path d="M451.511,333.829C451.511,332.714 451.907,331.763 452.699,330.978C453.49,330.193 454.445,329.798 455.561,329.798C456.718,329.798 457.685,330.186 458.462,330.956C459.241,331.727 459.631,332.685 459.631,333.828C459.631,334.972 459.234,335.941 458.443,336.741C457.648,337.539 456.688,337.938 455.56,337.938C454.457,337.938 453.507,337.534 452.707,336.719C451.91,335.909 451.511,334.944 451.511,333.829Z" style="fill:rgb(162,189,48);fill-rule:nonzero;"/>
            <rect x="287.49" y="340.938" width="7.611" height="22.939"/>
            <path d="M308.953,364.792C306.901,364.792 304.99,364.556 303.271,364.09C301.641,363.649 300.062,362.981 298.574,362.104L300.084,356.553C301.213,357.471 302.457,358.188 303.785,358.682C305.267,359.272 306.796,359.572 308.319,359.572C309.468,359.572 310.318,359.375 310.916,358.97C311.552,358.589 311.897,357.987 311.897,357.24C311.897,355.99 310.723,355.108 308.309,354.544C307.552,354.374 306.979,354.228 306.603,354.106C304.121,353.376 302.352,352.483 301.338,351.455C300.238,350.399 299.709,349.075 299.709,347.396C299.709,345.209 300.515,343.501 302.173,342.171C303.775,340.853 306.054,340.187 308.952,340.187C310.373,340.187 311.909,340.359 313.517,340.697C314.788,340.96 316.28,341.461 317.954,342.191L316.455,347.168C315.438,346.521 314.406,346.021 313.379,345.685C312.275,345.285 311.09,345.081 309.866,345.081C308.819,345.081 308.044,345.245 307.495,345.58C306.921,345.924 306.617,346.477 306.617,347.18C306.617,348.201 307.753,348.984 310.193,349.639C310.927,349.863 311.182,349.94 311.291,349.965L311.29,349.965C314.093,350.756 316.076,351.696 317.184,352.757C318.225,353.841 318.758,355.292 318.758,357.058C318.758,359.382 317.892,361.204 316.108,362.626C314.278,364.062 311.869,364.792 308.953,364.792Z" style="fill-rule:nonzero;"/>
            <rect x="322.465" y="340.938" width="7.611" height="22.939"/>
            <path d="M337.16,363.877L337.16,346.111L333.597,346.111L333.597,340.937L337.16,340.937L337.16,335.717C337.16,333.101 337.879,331.093 339.295,329.749C340.7,328.447 342.88,327.787 345.77,327.787C345.96,327.787 346.463,327.817 347.267,327.879C347.913,327.984 348.434,328.078 348.803,328.157L348.803,333.727C348.62,333.67 348.422,333.614 348.206,333.558C347.553,333.462 347.348,333.452 347.247,333.452C346.312,333.452 345.636,333.742 345.235,334.312C344.829,334.877 344.63,335.691 344.63,336.795L344.63,340.936L348.803,340.936L348.803,346.11L344.63,346.11L344.63,363.876L337.16,363.876L337.16,363.877Z" style="fill-rule:nonzero;"/>
            <path d="M438.253,364.792C436.2,364.792 434.289,364.556 432.569,364.089C430.94,363.648 429.361,362.981 427.873,362.104L429.384,356.552C430.515,357.472 431.757,358.188 433.085,358.682C434.567,359.272 436.096,359.572 437.619,359.572C438.768,359.572 439.617,359.375 440.216,358.97C440.851,358.589 441.197,357.987 441.197,357.24C441.197,355.99 440.023,355.108 437.609,354.543C436.855,354.374 436.282,354.228 435.903,354.106C433.42,353.375 431.65,352.483 430.637,351.455C429.537,350.399 429.008,349.075 429.008,347.396C429.008,345.209 429.814,343.501 431.472,342.17C433.074,340.853 435.352,340.187 438.252,340.187C439.672,340.187 441.208,340.359 442.815,340.697C444.089,340.96 445.58,341.461 447.253,342.191L445.754,347.168C444.737,346.521 443.705,346.021 442.678,345.685C441.574,345.285 440.39,345.08 439.166,345.08C438.118,345.08 437.342,345.244 436.794,345.58C436.221,345.924 435.915,346.477 435.915,347.18C435.915,348.201 437.052,348.982 439.492,349.639C440.229,349.863 440.482,349.94 440.591,349.965L440.589,349.965C443.393,350.756 445.375,351.695 446.483,352.757C447.525,353.842 448.058,355.292 448.058,357.058C448.058,359.382 447.191,361.204 445.407,362.626C443.579,364.062 441.171,364.792 438.253,364.792Z" style="fill-rule:nonzero;"/>
            <rect x="451.766" y="340.937" width="7.611" height="22.94"/>
            <path d="M473.179,364.792C470.143,364.792 467.694,363.67 465.902,361.459C465.015,360.359 464.328,359.044 463.861,357.549C463.39,356.044 463.151,354.322 463.151,352.432C463.151,348.665 464.122,345.648 466.034,343.46C467.935,341.288 470.521,340.187 473.719,340.187C475.422,340.187 477.12,340.67 478.35,341.378C480.208,342.446 480.824,343.371 481.459,344.243C481.813,344.728 481.997,345.182 481.997,345.182L481.997,340.936L488.999,340.936L488.999,363.876L482.043,363.876L482.043,359.423L481.116,360.715C480.086,362.103 479.096,362.956 477.788,363.689C476.483,364.422 474.932,364.792 473.179,364.792ZM476.508,346.041C474.726,346.041 473.298,346.617 472.262,347.752C471.205,348.907 470.669,350.471 470.669,352.397C470.669,354.341 471.207,355.897 472.265,357.022C473.281,358.137 474.71,358.706 476.508,358.706C478.29,358.706 479.729,358.139 480.786,357.023C481.838,355.914 482.372,354.357 482.372,352.397C482.372,350.436 481.842,348.888 480.797,347.793C479.737,346.631 478.292,346.041 476.508,346.041Z" style="fill-rule:nonzero;"/>
            <path d="M409.231,364.792C406.194,364.792 403.746,363.67 401.953,361.459C401.066,360.359 400.38,359.044 399.912,357.549C399.442,356.044 399.203,354.322 399.203,352.432C399.203,348.665 400.173,345.648 402.085,343.46C403.986,341.288 406.571,340.187 409.77,340.187C411.473,340.187 413.171,340.67 414.402,341.378C416.258,342.446 416.874,343.371 417.51,344.243C417.864,344.728 418.048,345.182 418.048,345.182L418.048,340.936L425.05,340.936L425.05,363.876L418.095,363.876L418.095,359.423L417.167,360.715C416.137,362.103 415.147,362.956 413.838,363.689C412.534,364.422 410.984,364.792 409.231,364.792ZM412.56,346.041C410.778,346.041 409.348,346.617 408.312,347.752C407.256,348.907 406.721,350.471 406.721,352.397C406.721,354.341 407.258,355.897 408.317,357.022C409.332,358.137 410.76,358.706 412.56,358.706C414.342,358.706 415.781,358.139 416.837,357.023C417.89,355.914 418.423,354.357 418.423,352.397C418.423,350.436 417.894,348.888 416.848,347.793C415.788,346.631 414.343,346.041 412.56,346.041Z" style="fill-rule:nonzero;"/>
        </g>
    </g>
</svg>
